<svg xmlns="http://www.w3.org/2000/svg" xmlns:xlink="http://www.w3.org/1999/xlink" width="2000" zoomAndPan="magnify" viewBox="0 0 1500 374.999991" height="500" preserveAspectRatio="xMidYMid meet" version="1.0"><defs><g/><clipPath id="c82209495d"><path d="M 5.667969 49.699219 L 1494 49.699219 L 1494 343.199219 L 5.667969 343.199219 Z M 5.667969 49.699219 " clip-rule="nonzero"/></clipPath><clipPath id="889ee86d4e"><path d="M 39.597656 49.699219 L 1460.402344 49.699219 C 1469.398438 49.699219 1478.03125 53.277344 1484.394531 59.636719 C 1490.757812 66 1494.332031 74.632812 1494.332031 83.628906 L 1494.332031 309.269531 C 1494.332031 318.269531 1490.757812 326.898438 1484.394531 333.261719 C 1478.03125 339.625 1469.398438 343.199219 1460.402344 343.199219 L 39.597656 343.199219 C 30.601562 343.199219 21.96875 339.625 15.605469 333.261719 C 9.242188 326.898438 5.667969 318.269531 5.667969 309.269531 L 5.667969 83.628906 C 5.667969 74.632812 9.242188 66 15.605469 59.636719 C 21.96875 53.277344 30.601562 49.699219 39.597656 49.699219 Z M 39.597656 49.699219 " clip-rule="nonzero"/></clipPath></defs><g clip-path="url(#c82209495d)"><g clip-path="url(#889ee86d4e)"><path fill="#ffffff" d="M 5.667969 49.699219 L 1493.800781 49.699219 L 1493.800781 343.199219 L 5.667969 343.199219 Z M 5.667969 49.699219 " fill-opacity="1" fill-rule="nonzero"/></g></g><g fill="#000000" fill-opacity="1"><g transform="translate(30.582529, 314.567845)"><g><path d="M 6.40625 -0.640625 L 192.65625 0 L 247.15625 -53.859375 L 251 -152.59375 L 176.953125 -213.5 L 11.859375 -211.890625 Z M 71.171875 -67 L 73.734375 -163.8125 L 148.09375 -166.375 L 176.953125 -142.015625 L 175.984375 -83.671875 L 146.8125 -64.4375 Z M 71.171875 -67 "/></g></g></g><g fill="#000000" fill-opacity="1"><g transform="translate(287.991222, 314.567845)"><g><path d="M 169.578125 -188.8125 L 177.265625 0 L 15.0625 0.328125 L 6.40625 -104.828125 L 114.4375 -114.125 L 112.515625 -141.375 L 38.140625 -137.515625 L 35.90625 -182.71875 Z M 56.421875 -76.296875 L 55.78125 -40.078125 L 114.765625 -38.46875 L 115.40625 -74.6875 Z M 56.421875 -76.296875 "/></g></g></g><g fill="#000000" fill-opacity="1"><g transform="translate(471.671387, 314.567845)"><g><path d="M 121.5 -51.296875 L 64.109375 -51.296875 L 64.109375 -111.875 L 115.40625 -111.875 L 113.796875 -161.890625 L 64.109375 -160.28125 L 64.109375 -213.171875 L 7.6875 -215.09375 L 6.40625 0 L 119.890625 0 Z M 121.5 -51.296875 "/></g></g></g><g fill="#000000" fill-opacity="1"><g transform="translate(599.57431, 314.567845)"><g><path d="M 169.578125 -188.8125 L 177.265625 0 L 15.0625 0.328125 L 6.40625 -104.828125 L 114.4375 -114.125 L 112.515625 -141.375 L 38.140625 -137.515625 L 35.90625 -182.71875 Z M 56.421875 -76.296875 L 55.78125 -40.078125 L 114.765625 -38.46875 L 115.40625 -74.6875 Z M 56.421875 -76.296875 "/></g></g></g><g fill="#9d0084" fill-opacity="1"><g transform="translate(806.696557, 314.567845)"><g><path d="M 69.234375 -126.9375 L 66.03125 -213.8125 L 6.40625 -212.21875 L 6.40625 0.96875 L 78.21875 0.96875 L 78.21875 -92.96875 L 172.46875 -92.96875 L 173.75 -2.25 L 246.1875 -0.96875 L 244.90625 -213.8125 L 172.46875 -212.21875 L 172.46875 -125.015625 Z M 69.234375 -126.9375 "/></g></g></g><g fill="#9d0084" fill-opacity="1"><g transform="translate(1059.296841, 314.567845)"><g><path d="M 77.890625 -180.15625 L 6.40625 -181.4375 L 6.40625 0 L 209 0.96875 L 209.328125 -181.4375 L 139.125 -180.15625 L 139.125 -47.4375 L 76.296875 -46.15625 Z M 77.890625 -180.15625 "/></g></g></g><g fill="#9d0084" fill-opacity="1"><g transform="translate(1275.032882, 314.567845)"><g><path d="M 75.328125 -236.25 L 10.265625 -237.53125 L 6.40625 0 L 73.09375 -1.28125 L 73.09375 -41.671875 L 85.265625 -55.140625 L 126.625 0.96875 L 194.265625 0.96875 L 121.8125 -94.890625 L 181.765625 -165.40625 L 113.484375 -166.6875 L 75.328125 -125.34375 Z M 75.328125 -236.25 "/></g></g></g></svg>